HIERARCHY
ROOT Hips
{
	OFFSET 0.000000 35.082581 0.000000
	CHANNELS 6 Xposition Yposition Zposition Xrotation Yrotation Zrotation 
	JOINT Spine
	{
		OFFSET 0.000000 6.876099 0.125700
		CHANNELS 3 Xrotation Yrotation Zrotation
		JOINT Spine1
		{
			OFFSET 0.000000 5.730043 0.104720
			CHANNELS 3 Xrotation Yrotation Zrotation
			JOINT Spine1_split
			{
				OFFSET 0.000000 5.730043 0.104720
				CHANNELS 3 Xrotation Yrotation Zrotation
				JOINT Spine2
				{
					OFFSET 0.000000 5.730043 0.104720
					CHANNELS 3 Xrotation Yrotation Zrotation
					JOINT Neck
					{
						OFFSET 0.000000 10.314075 0.188496
						CHANNELS 3 Xrotation Yrotation Zrotation
						JOINT Head
						{
							OFFSET 0.000000 7.643700 -2.377400
							CHANNELS 3 Xrotation Yrotation Zrotation
							JOINT HeadTop_End
							{
								OFFSET 0.000000 43.788605 -13.619600
								CHANNELS 3 Xrotation Yrotation Zrotation
								End Site
								{
									OFFSET 0.000000 0.000000 0.000000
								}
							}
						}
					}
					JOINT LeftShoulder
					{
						OFFSET 2.196100 4.412489 0.087492
						CHANNELS 3 Xrotation Yrotation Zrotation
						JOINT LeftShoulder_split
						{
							OFFSET 2.196100 4.412489 0.087492
							CHANNELS 3 Xrotation Yrotation Zrotation
							JOINT LeftArm
							{
								OFFSET 8.771219 -2.981674 -0.026999
								CHANNELS 3 Xrotation Yrotation Zrotation
								JOINT LeftForeArm
								{
									OFFSET 8.512804 0.000000 -0.000000
									CHANNELS 3 Xrotation Yrotation Zrotation
									JOINT LeftHand
									{
										OFFSET 18.484802 0.000000 -0.000000
										CHANNELS 3 Xrotation Yrotation Zrotation
										JOINT LeftHandThumb1
										{
											OFFSET 2.499420 -1.158070 2.653252
											CHANNELS 3 Xrotation Yrotation Zrotation
											JOINT LeftHandThumb2
											{
												OFFSET 2.370079 -1.368366 1.368366
												CHANNELS 3 Xrotation Yrotation Zrotation
												JOINT LeftHandThumb3
												{
													OFFSET 2.676727 -1.545410 1.545409
													CHANNELS 3 Xrotation Yrotation Zrotation
													JOINT LeftHandThumb4
													{
														OFFSET 1.692226 -0.977005 0.977007
														CHANNELS 3 Xrotation Yrotation Zrotation
														End Site
														{
															OFFSET 0.000000 0.000000 0.000000
														}
													}
												}
											}
										}
										JOINT LeftHandIndex1
										{
											OFFSET 7.924831 -0.457527 2.345128
											CHANNELS 3 Xrotation Yrotation Zrotation
											JOINT LeftHandIndex2
											{
												OFFSET 3.643303 0.000000 0.000000
												CHANNELS 3 Xrotation Yrotation Zrotation
												JOINT LeftHandIndex3
												{
													OFFSET 3.810799 0.000000 0.000000
													CHANNELS 3 Xrotation Yrotation Zrotation
													JOINT LeftHandIndex4
													{
														OFFSET 2.403702 0.000000 0.000000
														CHANNELS 3 Xrotation Yrotation Zrotation
														End Site
														{
															OFFSET 0.000000 0.000000 0.000000
														}
													}
												}
											}
										}
										JOINT LeftHandMiddle1
										{
											OFFSET 8.563995 0.000000 -0.000000
											CHANNELS 3 Xrotation Yrotation Zrotation
											JOINT LeftHandMiddle2
											{
												OFFSET 3.861618 0.000000 0.000000
												CHANNELS 3 Xrotation Yrotation Zrotation
												JOINT LeftHandMiddle3
												{
													OFFSET 3.701603 0.000000 0.000000
													CHANNELS 3 Xrotation Yrotation Zrotation
													JOINT LeftHandMiddle4
													{
														OFFSET 2.322544 0.000000 0.000000
														CHANNELS 3 Xrotation Yrotation Zrotation
														End Site
														{
															OFFSET 0.000000 0.000000 0.000000
														}
													}
												}
											}
										}
										JOINT LeftHandRing1
										{
											OFFSET 8.426460 -0.424637 -3.286992
											CHANNELS 3 Xrotation Yrotation Zrotation
											JOINT LeftHandRing2
											{
												OFFSET 3.126408 0.000000 0.000000
												CHANNELS 3 Xrotation Yrotation Zrotation
												JOINT LeftHandRing3
												{
													OFFSET 3.085026 0.000000 0.000000
													CHANNELS 3 Xrotation Yrotation Zrotation
													JOINT LeftHandRing4
													{
														OFFSET 1.644005 0.000000 0.000000
														CHANNELS 3 Xrotation Yrotation Zrotation
														End Site
														{
															OFFSET 0.000000 0.000000 0.000000
														}
													}
												}
											}
										}
									}
								}
							}
						}
					}
					JOINT RightShoulder
					{
						OFFSET -2.196100 4.412496 0.070690
						CHANNELS 3 Xrotation Yrotation Zrotation
						JOINT RightShoulder_split
						{
							OFFSET -2.196100 4.412496 0.070690
							CHANNELS 3 Xrotation Yrotation Zrotation
							JOINT RightArm
							{
								OFFSET -8.771282 -2.981682 -0.094208
								CHANNELS 3 Xrotation Yrotation Zrotation
								JOINT RightForeArm
								{
									OFFSET -8.494598 0.000000 0.000000
									CHANNELS 3 Xrotation Yrotation Zrotation
									JOINT RightHand
									{
										OFFSET -18.483803 0.000000 0.000001
										CHANNELS 3 Xrotation Yrotation Zrotation
										JOINT RightHandThumb1
										{
											OFFSET -2.527351 -1.008072 2.575253
											CHANNELS 3 Xrotation Yrotation Zrotation
											JOINT RightHandThumb2
											{
												OFFSET -2.321518 -1.340328 1.340329
												CHANNELS 3 Xrotation Yrotation Zrotation
												JOINT RightHandThumb3
												{
													OFFSET -2.657753 -1.534454 1.534455
													CHANNELS 3 Xrotation Yrotation Zrotation
													JOINT RightHandThumb4
													{
														OFFSET -1.807510 -1.043568 1.043567
														CHANNELS 3 Xrotation Yrotation Zrotation
														End Site
														{
															OFFSET 0.000000 0.000000 0.000000
														}
													}
												}
											}
										}
										JOINT RightHandIndex1
										{
											OFFSET -8.811420 0.015533 2.887987
											CHANNELS 3 Xrotation Yrotation Zrotation
											JOINT RightHandIndex2
											{
												OFFSET -3.537502 0.000000 0.000000
												CHANNELS 3 Xrotation Yrotation Zrotation
												JOINT RightHandIndex3
												{
													OFFSET -3.356201 0.000000 0.000000
													CHANNELS 3 Xrotation Yrotation Zrotation
													JOINT RightHandIndex4
													{
														OFFSET -1.933098 0.000000 0.000000
														CHANNELS 3 Xrotation Yrotation Zrotation
														End Site
														{
															OFFSET 0.000000 0.000000 0.000000
														}
													}
												}
											}
										}
										JOINT RightHandMiddle1
										{
											OFFSET -8.178135 0.000000 0.000000
											CHANNELS 3 Xrotation Yrotation Zrotation
											JOINT RightHandMiddle2
											{
												OFFSET -3.901302 0.000000 0.000000
												CHANNELS 3 Xrotation Yrotation Zrotation
												JOINT RightHandMiddle3
												{
													OFFSET -3.909599 0.000000 0.000000
													CHANNELS 3 Xrotation Yrotation Zrotation
													JOINT RightHandMiddle4
													{
														OFFSET -2.376003 0.000000 0.000000
														CHANNELS 3 Xrotation Yrotation Zrotation
														End Site
														{
															OFFSET 0.000000 0.000000 0.000000
														}
													}
												}
											}
										}
										JOINT RightHandRing1
										{
											OFFSET -7.559013 0.014137 -2.865403
											CHANNELS 3 Xrotation Yrotation Zrotation
											JOINT RightHandRing2
											{
												OFFSET -3.449306 0.000000 0.000000
												CHANNELS 3 Xrotation Yrotation Zrotation
												JOINT RightHandRing3
												{
													OFFSET -3.362106 0.000000 0.000000
													CHANNELS 3 Xrotation Yrotation Zrotation
													JOINT RightHandRing4
													{
														OFFSET -2.076401 0.000000 0.000000
														CHANNELS 3 Xrotation Yrotation Zrotation
														End Site
														{
															OFFSET 0.000000 0.000000 0.000000
														}
													}
												}
											}
										}
									}
								}
							}
						}
					}
				}
			}
		}
	}
	JOINT LeftUpLeg
	{
		OFFSET 10.205400 -3.823500 0.155100
		CHANNELS 3 Xrotation Yrotation Zrotation
		JOINT LeftLeg
		{
			OFFSET 0.708757 -12.982077 0.567790
			CHANNELS 3 Xrotation Yrotation Zrotation
			JOINT LeftFoot
			{
				OFFSET -0.708756 -10.717838 -2.184338
				CHANNELS 3 Xrotation Yrotation Zrotation
				JOINT LeftToeBase
				{
					OFFSET 0.108149 -7.191104 7.560241
					CHANNELS 3 Xrotation Yrotation Zrotation
					JOINT LeftToe_End
					{
						OFFSET 0.070230 0.081724 4.490308
						CHANNELS 3 Xrotation Yrotation Zrotation
						End Site
						{
							OFFSET 0.000000 0.000000 0.000000
						}
					}
				}
			}
		}
	}
	JOINT RightUpLeg
	{
		OFFSET -10.205400 -3.823500 0.005500
		CHANNELS 3 Xrotation Yrotation Zrotation
		JOINT RightLeg
		{
			OFFSET -0.708756 -12.982134 0.610632
			CHANNELS 3 Xrotation Yrotation Zrotation
			JOINT RightFoot
			{
				OFFSET 0.708754 -10.717769 -1.945823
				CHANNELS 3 Xrotation Yrotation Zrotation
				JOINT RightToeBase
				{
					OFFSET -0.108140 -7.191069 7.372968
					CHANNELS 3 Xrotation Yrotation Zrotation
					JOINT RightToe_End
					{
						OFFSET -0.070227 0.081735 4.479403
						CHANNELS 3 Xrotation Yrotation Zrotation
						End Site
						{
							OFFSET 0.000000 0.000000 0.000000
						}
					}
				}
			}
		}
	}
}
MOTION
Frames: 4
Frame Time: 0.016667
1.779824 17.830494 -1.200763 0.279935 -174.863498 -8.999995 3.993731 3.124667 -2.194580 8.138439 6.853469 -4.615298 0.000000 0.000000 0.000000 8.138439 6.853472 -4.615313 -3.924072 28.385115 6.948710 6.044271 35.632745 -22.310191 0.000000 -0.000000 0.000000 0.991936 -15.521559 -11.873551 0.000000 0.000000 0.000000 2.947340 -1.004906 -32.103808 39.921943 -32.872584 -2.089476 12.741834 10.294079 2.732610 -10.171838 -9.655316 9.007704 2.321120 6.714500 2.170913 -0.000004 0.000003 -0.000010 -0.000001 0.000001 -0.000001 -0.823921 -6.584361 -6.418253 -0.126837 0.207659 -21.714375 0.000006 0.000003 0.000007 -0.000003 0.000002 -0.000004 1.294484 -1.113040 -9.321280 -0.178453 -0.773444 -14.430105 -0.000001 -0.000002 -0.000002 0.000003 -0.000001 0.000001 -0.565339 2.847727 -6.302098 -0.505474 -2.597473 -30.199490 -0.000002 0.000004 0.000003 0.000002 0.000001 -0.000002 3.297392 -18.314905 12.160834 0.000000 0.000000 0.000000 12.768044 -13.236288 60.187053 30.213089 39.380152 -4.024287 19.052446 -1.510656 11.776115 -7.035207 1.739456 -10.279214 -0.642360 -0.093879 -1.289337 0.000001 0.000011 -0.000000 0.000004 -0.000002 -0.000002 -3.340370 2.507657 5.478414 0.120524 -1.119648 16.859794 0.000010 0.000001 -0.000004 0.000002 -0.000003 0.000001 -0.189060 -1.324950 0.979401 -0.357887 1.142263 22.116004 -0.000009 -0.000003 0.000001 0.000002 0.000001 -0.000002 1.946027 0.242701 1.015179 -0.619904 3.110106 28.344735 0.000010 0.000004 -0.000004 -0.000000 -0.000001 0.000001 -70.883532 -38.485773 38.028359 127.348699 -24.461629 -2.931952 -41.451974 8.336164 -16.124507 -1.231657 1.139614 1.449683 -0.000000 0.000000 0.000000 -37.154327 10.645373 -40.125531 111.940612 24.412257 3.321332 -55.779051 -14.570658 20.213554 -9.247862 -3.094960 -0.191139 0.000000 -0.000000 -0.000000 
1.779096 17.831085 -1.202206 0.249096 -174.848321 -9.015755 3.982163 3.123868 -2.192745 8.115208 6.854067 -4.611593 0.000000 0.000000 0.000000 8.115213 6.854062 -4.611584 -3.893996 28.384584 6.949294 6.058532 35.625946 -22.329914 0.000002 0.000000 -0.000000 0.983004 -15.541322 -11.895348 0.000000 0.000000 0.000000 2.965881 -0.975589 -32.060908 39.955586 -32.910597 -2.104592 12.745300 10.287325 2.740118 -10.172303 -9.653917 9.008274 2.321122 6.714504 2.170919 -0.000000 -0.000000 -0.000008 0.000001 -0.000000 -0.000002 -0.828615 -6.612129 -6.414582 -0.126833 0.207659 -21.714375 0.000006 0.000001 0.000004 0.000001 0.000001 -0.000002 1.294507 -1.112999 -9.320919 -0.178455 -0.773444 -14.430103 -0.000004 -0.000001 -0.000004 -0.000001 -0.000000 0.000001 -0.564484 2.847570 -6.300946 -0.505472 -2.597474 -30.199487 -0.000005 0.000002 0.000002 0.000003 0.000001 -0.000001 3.299767 -18.344981 12.110438 0.000000 0.000000 0.000000 12.768938 -13.198103 60.241415 30.218253 39.297610 -4.016855 19.086238 -1.501100 11.733830 -7.041343 1.762643 -10.274677 -0.642358 -0.093874 -1.289335 -0.000001 0.000009 -0.000002 0.000003 -0.000005 -0.000000 -3.280168 2.555626 5.448243 0.120525 -1.119644 16.859794 0.000010 -0.000000 -0.000004 -0.000000 -0.000002 0.000002 -0.085935 -1.307454 0.995300 -0.357883 1.142262 22.116011 -0.000003 -0.000003 0.000002 0.000003 0.000000 -0.000000 1.946335 0.242921 1.016100 -0.619909 3.110105 28.344735 0.000014 0.000003 -0.000005 0.000000 -0.000002 0.000002 -70.962988 -38.512530 37.989751 127.353043 -24.447757 -2.928808 -41.421774 8.332071 -16.131314 -1.230522 1.138971 1.448427 0.000000 0.000002 -0.000000 -37.155314 10.622783 -40.113998 111.925504 24.393370 3.323088 -55.790484 -14.577799 20.216551 -9.247311 -3.096599 -0.190644 0.000000 0.000003 -0.000000 
1.778206 17.831379 -1.204405 0.223981 -174.852665 -9.026391 3.971299 3.123677 -2.194848 8.093583 6.853830 -4.615530 0.000000 0.000000 0.000000 8.093585 6.853819 -4.615526 -3.941502 28.376347 6.975600 6.129572 35.633292 -22.332410 -0.000002 0.000000 0.000000 0.984351 -15.557363 -11.893249 0.000000 0.000000 0.000000 2.993945 -0.936726 -32.027775 39.996949 -32.956025 -2.104894 12.752495 10.324091 2.750448 -10.172774 -9.652540 9.008889 2.321123 6.714504 2.170921 -0.000000 0.000003 -0.000010 -0.000003 -0.000002 0.000001 -0.833428 -6.640641 -6.410811 -0.126839 0.207659 -21.714372 0.000005 0.000000 0.000005 -0.000002 -0.000000 0.000001 1.294515 -1.112974 -9.320527 -0.178449 -0.773444 -14.430105 0.000000 -0.000003 -0.000001 0.000001 -0.000000 0.000001 -0.563584 2.847400 -6.299830 -0.505479 -2.597473 -30.199494 -0.000004 0.000003 0.000007 -0.000003 -0.000001 0.000003 3.302526 -18.350051 12.097423 0.000000 0.000000 0.000000 12.769793 -13.185359 60.268421 30.241315 39.257048 -4.029742 19.125797 -1.494293 11.725364 -7.048409 1.789086 -10.269474 -0.642359 -0.093878 -1.289337 0.000003 0.000011 -0.000000 -0.000003 -0.000005 0.000003 -3.217543 2.602797 5.419776 0.120524 -1.119648 16.859796 0.000011 -0.000000 -0.000003 -0.000001 -0.000002 0.000002 0.019108 -1.289084 1.011194 -0.357881 1.142264 22.116002 -0.000002 -0.000002 0.000002 0.000002 0.000000 -0.000000 1.946584 0.243104 1.016864 -0.619904 3.110107 28.344737 0.000011 0.000003 -0.000003 -0.000003 -0.000000 0.000001 -70.991702 -38.516646 38.004323 127.358412 -24.457832 -2.929712 -41.422317 8.322892 -16.118674 -1.229423 1.138393 1.447055 0.000000 0.000002 -0.000000 -37.170955 10.620218 -40.088317 111.923066 24.374952 3.325064 -55.803827 -14.583128 20.217066 -9.246804 -3.098231 -0.190075 0.000001 -0.000001 0.000000 
1.777152 17.829575 -1.206592 0.198066 -174.843991 -9.042812 3.962094 3.122998 -2.193295 8.075131 6.853917 -4.612897 0.000000 0.000000 0.000000 8.075141 6.853912 -4.612895 -3.925089 28.376656 6.958243 6.143545 35.639569 -22.329738 0.000002 -0.000000 0.000000 0.985472 -15.558937 -11.899342 0.000000 0.000000 0.000000 3.003088 -0.913856 -31.997066 40.016545 -32.998222 -2.121988 12.751336 10.346634 2.756612 -10.173263 -9.651245 9.009496 2.321128 6.714507 2.170922 -0.000007 0.000004 -0.000011 -0.000003 0.000001 -0.000002 -0.838457 -6.669850 -6.406888 -0.126839 0.207659 -21.714372 0.000005 0.000002 0.000004 -0.000004 0.000001 0.000001 1.294494 -1.112941 -9.320137 -0.178451 -0.773443 -14.430108 -0.000003 -0.000001 -0.000003 0.000006 -0.000000 -0.000000 -0.562661 2.847225 -6.298619 -0.505475 -2.597472 -30.199490 0.000000 0.000001 0.000004 -0.000003 -0.000000 -0.000001 3.306600 -18.371401 12.069603 0.000000 0.000000 0.000000 12.769779 -13.150457 60.289219 30.289939 39.220282 -4.043916 19.162126 -1.502722 11.706709 -7.056331 1.818827 -10.263612 -0.642359 -0.093876 -1.289334 0.000008 0.000010 0.000002 -0.000001 -0.000001 0.000003 -3.152914 2.648908 5.393178 0.120529 -1.119646 16.859794 0.000009 -0.000000 -0.000002 -0.000001 -0.000003 0.000002 0.125402 -1.270063 1.027003 -0.357884 1.142264 22.116004 -0.000008 -0.000004 0.000000 0.000000 -0.000001 0.000001 1.946779 0.243266 1.017467 -0.619899 3.110110 28.344735 0.000011 0.000003 -0.000004 -0.000001 -0.000000 0.000001 -71.066506 -38.538632 38.004463 127.370228 -24.471881 -2.930372 -41.393033 8.300947 -16.100492 -1.228297 1.137897 1.445675 0.000000 0.000001 0.000000 -37.179684 10.591051 -40.083409 111.919473 24.371399 3.326731 -55.822894 -14.581516 20.207361 -9.246328 -3.090844 -0.187968 0.000000 0.000001 -0.000000 
